<svg xmlns="http://www.w3.org/2000/svg" viewBox="0 0 64 64" width="64" height="64">
  <circle cx="32" cy="32" r="30" fill="#007BFF" stroke="#004a99" stroke-width="2"/>
  <g fill="white" transform="translate(12, 12) scale(0.6)">
    <path d="M48 30c-4.4 0-8 3.6-8 8s3.6 8 8 8 8-3.6 8-8-3.6-8-8-8zm0 12c-2.2 0-4-1.8-4-4s1.8-4 4-4 4 1.8 4 4-1.8 4-4 4z"/>
    <path d="M16 30c-4.4 0-8 3.6-8 8s3.6 8 8 8 8-3.6 8-8-3.6-8-8-8zm0 12c-2.2 0-4-1.8-4-4s1.8-4 4-4 4 1.8 4 4-1.8 4-4 4z"/>
    <path d="M48 26c.6 0 1-.4 1-1v-6c0-2.8-2.2-5-5-5H34c-.6 0-1 .4-1 1s.4 1 1 1h10c1.7 0 3 1.3 3 3v6c0 .6.4 1 1 1z"/>
    <path d="M27.5 24.3L22.8 15H19c-.6 0-1 .4-1 1s.4 1 1 1h2.2l3.6 7.2-4.3 4.3c-.6-.3-1.2-.5-1.9-.5H14c-2.8 0-5 2.2-5 5v2c0 .6.4 1 1 1h2.1c.5 2.3 2.5 4 4.9 4 2.8 0 5-2.2 5-5 0-.3 0-.7-.1-1h12.1c0 .3-.1.7-.1 1 0 2.8 2.2 5 5 5 2.4 0 4.4-1.7 4.9-4H46c.6 0 1-.4 1-1v-2c0-1.3-.5-2.5-1.3-3.4l2.6-5.2c.2-.5 0-1.1-.5-1.3-.5-.2-1.1 0-1.3.5l-2.6 5.2c-.6-.5-1.4-.8-2.2-.8H34l.8-1.7h6.4c.4 0 .7-.2.9-.5l4-8c.2-.5 0-1.1-.5-1.3-.5-.2-1.1 0-1.3.5l-3.8 7.3h-6.6L29 17.1c-.2-.4-.7-.7-1.1-.6-.5.1-.8.5-.9 1l-2 8c-.1.5.2 1 .7 1.1.5.1 1-.2 1.1-.7l1.7-6.6z"/>
  </g>
</svg> 